<svg width="24" height="24" viewBox="0 0 24 24" fill="none" xmlns="http://www.w3.org/2000/svg">
<path d="M6.4347 0H0.86948C0.485271 0 0.173828 0.311443 0.173828 0.695653V6.26088C0.173828 6.64509 0.485271 6.95653 0.86948 6.95653H6.4347C6.81891 6.95653 7.13035 6.64509 7.13035 6.26088V0.695653C7.13035 0.311443 6.81891 0 6.4347 0Z" fill="#CACACA"/>
<path d="M14.7826 0H9.21738C8.83317 0 8.52173 0.311443 8.52173 0.695653V6.26088C8.52173 6.64509 8.83317 6.95653 9.21738 6.95653H14.7826C15.1668 6.95653 15.4782 6.64509 15.4782 6.26088V0.695653C15.4782 0.311443 15.1668 0 14.7826 0Z" fill="#CACACA"/>
<path d="M6.4347 8.34766H0.86948C0.485271 8.34766 0.173828 8.6591 0.173828 9.04331V14.6085C0.173828 14.9927 0.485271 15.3042 0.86948 15.3042H6.4347C6.81891 15.3042 7.13035 14.9927 7.13035 14.6085V9.04331C7.13035 8.6591 6.81891 8.34766 6.4347 8.34766Z" fill="#CACACA"/>
<path d="M14.7826 8.34766H9.21738C8.83317 8.34766 8.52173 8.6591 8.52173 9.04331V14.6085C8.52173 14.9927 8.83317 15.3042 9.21738 15.3042H14.7826C15.1668 15.3042 15.4782 14.9927 15.4782 14.6085V9.04331C15.4782 8.6591 15.1668 8.34766 14.7826 8.34766Z" fill="#CACACA"/>
<path d="M23.1303 0L17.6957 0C17.3115 0 17 0.311443 17 0.695653V6.26088C17 6.64509 17.3115 6.95653 17.6957 6.95653H23.1303C23.5145 6.95653 23.8259 6.64509 23.8259 6.26088V0.695653C23.8259 0.311443 23.5144 0 23.1303 0Z" fill="#CACACA"/>
<path d="M23.1303 8.34766H3.19568C2.81147 8.34766 2.50003 8.6591 2.50003 9.04331V14.6085C2.50003 14.9927 2.81147 15.3042 3.19568 15.3042H23.1303C23.5145 15.3042 23.8259 14.9927 23.8259 14.6085V9.04331C23.8259 8.6591 23.5144 8.34766 23.1303 8.34766Z" fill="#CACACA"/>
<path d="M6.4347 17.043H0.86948C0.485271 17.043 0.173828 17.3544 0.173828 17.7386V23.3038C0.173828 23.688 0.485271 23.9995 0.86948 23.9995H6.4347C6.81891 23.9995 7.13035 23.688 7.13035 23.3038V17.7386C7.13035 17.3544 6.81891 17.043 6.4347 17.043Z" fill="#CACACA"/>
<path d="M14.7826 17.043H9.21738C8.83317 17.043 8.52173 17.3544 8.52173 17.7386V23.3038C8.52173 23.688 8.83317 23.9995 9.21738 23.9995H14.7826C15.1668 23.9995 15.4782 23.688 15.4782 23.3038V17.7386C15.4782 17.3544 15.1668 17.043 14.7826 17.043Z" fill="#CACACA"/>
<path d="M23.1303 17.043L17.6956 17.043C17.3114 17.043 16.9999 17.3544 16.9999 17.7386V23.3038C16.9999 23.688 17.3114 23.9995 17.6956 23.9995L23.1303 23.9995C23.5145 23.9995 23.8259 23.6881 23.8259 23.3039V17.7387C23.8259 17.3544 23.5144 17.043 23.1303 17.043Z" fill="#CACACA"/>
</svg>
